M48
;Layer_Color=9474304
;FILE_FORMAT=4:4
METRIC,LZ
;TYPE=PLATED
T01F00S00C0.6350
T03F00S00C0.8500
T04F00S00C1.0000
T05F00S00C1.2954
T06F00S00C1.5500
T07F00S00C1.6500
T08F00S00C1.8542
T09F00S00C3.2000
%
T01
X003683Y0004064
X0036733Y0021773
Y0024773
X0039733
Y0027773
Y0030773
Y0033773
Y0036773
Y0039773
X0036733
Y0036773
Y0033773
Y0030773
Y0027773
X0033733
Y0030773
Y0033773
Y0036773
Y0039773
X0030733
Y0036773
Y0033773
Y0030773
Y0027773
Y0024773
X0033733
Y0021773
X0030733
X0019939Y0032705
X0046482Y0015367
T03
X0041741Y00063771
X0045241
X0016581Y003937
X0013081
T04
X0055245Y0029845
Y0032345
T05
X0054102Y0021717
Y0024257
T06
X0025273Y0028321
Y0033401
Y0041021
X0045593
Y0030861
Y0020701
T07
X0051946Y0012371
Y0016331
X0007998Y0014403
Y0018363
T08
X0018669Y0012192
X0023495
X0028321
T09
X0055Y0005
Y004
X0005
Y0005
M30
