G04*
G04 #@! TF.GenerationSoftware,Altium Limited,Altium Designer,26.3.0 (6)*
G04*
G04 Layer_Physical_Order=2*
G04 Layer_Color=16711680*
%FSLAX44Y44*%
%MOMM*%
G71*
G04*
G04 #@! TF.SameCoordinates,B629A01A-656D-4AE3-8AA2-BA5F11861BCF*
G04*
G04*
G04 #@! TF.FilePolarity,Positive*
G04*
G01*
G75*
%ADD30O,3.1750X2.0320*%
%ADD31R,1.5500X1.5500*%
%ADD33R,2.5000X2.5000*%
%ADD34O,3.5000X2.5000*%
%ADD37C,1.5500*%
%ADD38C,2.5000*%
%ADD39O,2.5400X5.0800*%
%ADD44C,3.1750*%
%ADD45R,3.1750X3.1750*%
%ADD46C,1.8000*%
G04:AMPARAMS|DCode=47|XSize=4mm|YSize=1.8mm|CornerRadius=0.45mm|HoleSize=0mm|Usage=FLASHONLY|Rotation=90.000|XOffset=0mm|YOffset=0mm|HoleType=Round|Shape=RoundedRectangle|*
%AMROUNDEDRECTD47*
21,1,4.0000,0.9000,0,0,90.0*
21,1,3.1000,1.8000,0,0,90.0*
1,1,0.9000,0.4500,1.5500*
1,1,0.9000,0.4500,-1.5500*
1,1,0.9000,-0.4500,-1.5500*
1,1,0.9000,-0.4500,1.5500*
%
%ADD47ROUNDEDRECTD47*%
G04:AMPARAMS|DCode=48|XSize=4mm|YSize=1.8mm|CornerRadius=0.45mm|HoleSize=0mm|Usage=FLASHONLY|Rotation=180.000|XOffset=0mm|YOffset=0mm|HoleType=Round|Shape=RoundedRectangle|*
%AMROUNDEDRECTD48*
21,1,4.0000,0.9000,0,0,180.0*
21,1,3.1000,1.8000,0,0,180.0*
1,1,0.9000,-1.5500,0.4500*
1,1,0.9000,1.5500,0.4500*
1,1,0.9000,1.5500,-0.4500*
1,1,0.9000,-1.5500,-0.4500*
%
%ADD48ROUNDEDRECTD48*%
%ADD49C,6.0000*%
%ADD50C,0.8890*%
G36*
X536046Y433687D02*
X530948Y431089D01*
X526320Y427726D01*
X522274Y423680D01*
X518911Y419052D01*
X516313Y413954D01*
X514545Y408512D01*
X513650Y402861D01*
Y397139D01*
X514545Y391488D01*
X516313Y386046D01*
X518911Y380948D01*
X522274Y376320D01*
X526320Y372274D01*
X530948Y368911D01*
X536046Y366313D01*
X541488Y364545D01*
X547139Y363650D01*
X552861D01*
X558512Y364545D01*
X563954Y366313D01*
X569052Y368911D01*
X573680Y372274D01*
X577726Y376320D01*
X581089Y380948D01*
X594268Y379080D01*
X595630Y378294D01*
Y71706D01*
X594268Y70920D01*
X581089Y69051D01*
X577726Y73680D01*
X573680Y77726D01*
X569052Y81089D01*
X563954Y83687D01*
X558512Y85455D01*
X552861Y86350D01*
X547139D01*
X541488Y85455D01*
X536046Y83687D01*
X530948Y81089D01*
X526320Y77726D01*
X522274Y73680D01*
X518911Y69051D01*
X516313Y63953D01*
X514545Y58512D01*
X513650Y52861D01*
Y47139D01*
X514545Y41488D01*
X516313Y36046D01*
X518911Y30948D01*
X522274Y26319D01*
X526320Y22274D01*
X530948Y18911D01*
X536046Y16313D01*
X533429Y3810D01*
X66571D01*
X63953Y16313D01*
X69051Y18911D01*
X73680Y22274D01*
X77726Y26319D01*
X81089Y30948D01*
X83687Y36046D01*
X85455Y41488D01*
X86350Y47139D01*
Y52861D01*
X85455Y58512D01*
X83687Y63953D01*
X81089Y69051D01*
X77726Y73680D01*
X73680Y77726D01*
X69051Y81089D01*
X63953Y83687D01*
X58512Y85455D01*
X52861Y86350D01*
X47139D01*
X41488Y85455D01*
X36046Y83687D01*
X30948Y81089D01*
X26319Y77726D01*
X22274Y73680D01*
X18911Y69051D01*
X16313Y63953D01*
X3810Y66571D01*
Y383429D01*
X16313Y386046D01*
X18911Y380948D01*
X22274Y376320D01*
X26319Y372274D01*
X30948Y368911D01*
X36046Y366313D01*
X41488Y364545D01*
X47139Y363650D01*
X52861D01*
X58512Y364545D01*
X63953Y366313D01*
X69051Y368911D01*
X73680Y372274D01*
X77726Y376320D01*
X81089Y380948D01*
X83687Y386046D01*
X85455Y391488D01*
X86350Y397139D01*
Y402861D01*
X85455Y408512D01*
X83687Y413954D01*
X81089Y419052D01*
X77726Y423680D01*
X73680Y427726D01*
X69051Y431089D01*
X63953Y433687D01*
X67863Y445770D01*
X532136D01*
X536046Y433687D01*
D02*
G37*
%LPC*%
G36*
X254919Y432435D02*
X250541D01*
X246247Y431581D01*
X242202Y429906D01*
X238562Y427473D01*
X235467Y424378D01*
X233034Y420737D01*
X231359Y416693D01*
X230505Y412399D01*
Y408021D01*
X231359Y403727D01*
X233034Y399683D01*
X235467Y396042D01*
X238562Y392947D01*
X242202Y390514D01*
X246247Y388839D01*
X250541Y387985D01*
X254919D01*
X259213Y388839D01*
X263258Y390514D01*
X266898Y392947D01*
X269993Y396042D01*
X272425Y399683D01*
X274101Y403727D01*
X274955Y408021D01*
Y412399D01*
X274101Y416693D01*
X272425Y420737D01*
X269993Y424378D01*
X266898Y427473D01*
X263258Y429906D01*
X259213Y431581D01*
X254919Y432435D01*
D02*
G37*
G36*
X167322Y409050D02*
X164298D01*
X161333Y408460D01*
X158539Y407303D01*
X156025Y405623D01*
X153887Y403485D01*
X152207Y400971D01*
X151050Y398177D01*
X150460Y395212D01*
Y392188D01*
X151050Y389223D01*
X152207Y386429D01*
X153887Y383915D01*
X156025Y381777D01*
X158539Y380097D01*
X161333Y378940D01*
X164298Y378350D01*
X167322D01*
X170287Y378940D01*
X173081Y380097D01*
X175595Y381777D01*
X177733Y383915D01*
X179413Y386429D01*
X180570Y389223D01*
X181160Y392188D01*
Y395212D01*
X180570Y398177D01*
X179413Y400971D01*
X177733Y403485D01*
X175595Y405623D01*
X173081Y407303D01*
X170287Y408460D01*
X167322Y409050D01*
D02*
G37*
G36*
X458119Y330835D02*
X453741D01*
X449447Y329981D01*
X445402Y328306D01*
X441762Y325873D01*
X438667Y322778D01*
X436235Y319137D01*
X434559Y315093D01*
X433705Y310799D01*
Y306421D01*
X434559Y302127D01*
X436235Y298083D01*
X438667Y294442D01*
X441762Y291347D01*
X445402Y288915D01*
X449447Y287239D01*
X453741Y286385D01*
X458119D01*
X462413Y287239D01*
X466457Y288915D01*
X470098Y291347D01*
X473193Y294442D01*
X475625Y298083D01*
X477301Y302127D01*
X478155Y306421D01*
Y310799D01*
X477301Y315093D01*
X475625Y319137D01*
X473193Y322778D01*
X470098Y325873D01*
X466457Y328306D01*
X462413Y329981D01*
X458119Y330835D01*
D02*
G37*
G36*
X554306Y312550D02*
X550594D01*
X547008Y311589D01*
X543792Y309733D01*
X541167Y307108D01*
X539311Y303892D01*
X538350Y300306D01*
Y296594D01*
X539311Y293008D01*
X541167Y289792D01*
X543792Y287167D01*
X547008Y285311D01*
X550594Y284350D01*
X554306D01*
X557892Y285311D01*
X561108Y287167D01*
X563733Y289792D01*
X565589Y293008D01*
X566550Y296594D01*
Y300306D01*
X565589Y303892D01*
X563733Y307108D01*
X561108Y309733D01*
X557892Y311589D01*
X554306Y312550D01*
D02*
G37*
G36*
X274955Y305435D02*
X230505D01*
Y260985D01*
X274955D01*
Y305435D01*
D02*
G37*
G36*
X148010Y317274D02*
X139010D01*
X136178Y316901D01*
X133538Y315807D01*
X131272Y314068D01*
X129533Y311802D01*
X128439Y309162D01*
X128066Y306330D01*
Y275330D01*
X128439Y272498D01*
X129083Y270943D01*
X126225Y263002D01*
X124974Y260408D01*
X123103Y258274D01*
X98010D01*
X95178Y257901D01*
X92538Y256807D01*
X90272Y255068D01*
X88532Y252802D01*
X87439Y250162D01*
X87066Y247330D01*
Y238330D01*
X87439Y235498D01*
X88532Y232858D01*
X90272Y230592D01*
X92538Y228853D01*
X95178Y227759D01*
X98010Y227386D01*
X129010D01*
X131842Y227759D01*
X134482Y228853D01*
X136748Y230592D01*
X138487Y232858D01*
X139581Y235498D01*
X139954Y238330D01*
Y247330D01*
X139581Y250162D01*
X138937Y251717D01*
X141795Y259658D01*
X143046Y262252D01*
X144917Y264386D01*
X148010D01*
X150842Y264759D01*
X153482Y265853D01*
X155748Y267592D01*
X157487Y269858D01*
X158581Y272498D01*
X158954Y275330D01*
Y306330D01*
X158581Y309162D01*
X157487Y311802D01*
X155748Y314068D01*
X153482Y315807D01*
X150842Y316901D01*
X148010Y317274D01*
D02*
G37*
G36*
X546735Y259160D02*
X535305D01*
X532068Y258841D01*
X528956Y257897D01*
X526088Y256364D01*
X523574Y254301D01*
X521511Y251787D01*
X519978Y248919D01*
X519034Y245807D01*
X518715Y242570D01*
X519034Y239333D01*
X519978Y236221D01*
X521511Y233353D01*
X523574Y230839D01*
X526088Y228776D01*
X528956Y227243D01*
X532068Y226299D01*
X535305Y225980D01*
X546735D01*
X549972Y226299D01*
X553084Y227243D01*
X555952Y228776D01*
X558466Y230839D01*
X560529Y233353D01*
X562062Y236221D01*
X563006Y239333D01*
X563325Y242570D01*
X563006Y245807D01*
X562062Y248919D01*
X560529Y251787D01*
X558466Y254301D01*
X555952Y256364D01*
X553084Y257897D01*
X549972Y258841D01*
X546735Y259160D01*
D02*
G37*
G36*
X458119Y229235D02*
X453741D01*
X449447Y228381D01*
X445402Y226705D01*
X441762Y224273D01*
X438667Y221178D01*
X436235Y217537D01*
X434559Y213493D01*
X433705Y209199D01*
Y204821D01*
X434559Y200527D01*
X436235Y196483D01*
X438667Y192842D01*
X441762Y189747D01*
X445402Y187314D01*
X449447Y185639D01*
X453741Y184785D01*
X458119D01*
X462413Y185639D01*
X466457Y187314D01*
X470098Y189747D01*
X473193Y192842D01*
X475625Y196483D01*
X477301Y200527D01*
X478155Y204821D01*
Y209199D01*
X477301Y213493D01*
X475625Y217537D01*
X473193Y221178D01*
X470098Y224273D01*
X466457Y226705D01*
X462413Y228381D01*
X458119Y229235D01*
D02*
G37*
G36*
X521317Y182160D02*
X517603D01*
X513962Y181436D01*
X510531Y180015D01*
X507444Y177952D01*
X504818Y175326D01*
X502755Y172239D01*
X501334Y168808D01*
X500610Y165167D01*
Y161453D01*
X501334Y157812D01*
X502755Y154381D01*
X504818Y151294D01*
X507444Y148668D01*
X510531Y146605D01*
X513962Y145184D01*
X517603Y144460D01*
X521317D01*
X524958Y145184D01*
X528389Y146605D01*
X531476Y148668D01*
X534102Y151294D01*
X536165Y154381D01*
X537586Y157812D01*
X538310Y161453D01*
Y165167D01*
X537586Y168808D01*
X536165Y172239D01*
X534102Y175326D01*
X531476Y177952D01*
X528389Y180015D01*
X524958Y181436D01*
X521317Y182160D01*
D02*
G37*
G36*
X283210Y153762D02*
X279475Y153394D01*
X275885Y152305D01*
X272575Y150536D01*
X269674Y148156D01*
X267294Y145255D01*
X265768Y142401D01*
X264013Y141945D01*
X254147D01*
X252392Y142401D01*
X250866Y145255D01*
X248486Y148156D01*
X245585Y150536D01*
X242275Y152305D01*
X238685Y153394D01*
X234950Y153762D01*
X231215Y153394D01*
X227625Y152305D01*
X224315Y150536D01*
X221414Y148156D01*
X219034Y145255D01*
X217508Y142401D01*
X215753Y141945D01*
X205887D01*
X204132Y142401D01*
X202606Y145255D01*
X200226Y148156D01*
X197325Y150536D01*
X194015Y152305D01*
X190424Y153394D01*
X186690Y153762D01*
X182955Y153394D01*
X179365Y152305D01*
X176055Y150536D01*
X173154Y148156D01*
X170774Y145255D01*
X169005Y141945D01*
X167916Y138355D01*
X167548Y134620D01*
Y109220D01*
X167916Y105485D01*
X169005Y101895D01*
X170774Y98585D01*
X173154Y95684D01*
X176055Y93304D01*
X179365Y91535D01*
X182955Y90446D01*
X186690Y90078D01*
X190424Y90446D01*
X194015Y91535D01*
X197325Y93304D01*
X200226Y95684D01*
X202606Y98585D01*
X204132Y101439D01*
X205887Y101895D01*
X215753D01*
X217508Y101439D01*
X219034Y98585D01*
X221414Y95684D01*
X224315Y93304D01*
X227625Y91535D01*
X231215Y90446D01*
X234950Y90078D01*
X238685Y90446D01*
X242275Y91535D01*
X245585Y93304D01*
X248486Y95684D01*
X250866Y98585D01*
X252392Y101439D01*
X254147Y101895D01*
X264013D01*
X265768Y101439D01*
X267294Y98585D01*
X269674Y95684D01*
X272575Y93304D01*
X275885Y91535D01*
X279475Y90446D01*
X283210Y90078D01*
X286945Y90446D01*
X290535Y91535D01*
X293845Y93304D01*
X296746Y95684D01*
X299126Y98585D01*
X300895Y101895D01*
X301984Y105485D01*
X302352Y109220D01*
Y134620D01*
X301984Y138355D01*
X300895Y141945D01*
X299126Y145255D01*
X296746Y148156D01*
X293845Y150536D01*
X290535Y152305D01*
X286945Y153394D01*
X283210Y153762D01*
D02*
G37*
G36*
X84980Y162971D02*
X74980D01*
X71285Y162607D01*
X67731Y161529D01*
X64457Y159779D01*
X61586Y157423D01*
X59231Y154553D01*
X57481Y151278D01*
X56403Y147725D01*
X56039Y144030D01*
X56403Y140335D01*
X57481Y136782D01*
X59231Y133507D01*
X61586Y130637D01*
X64457Y128281D01*
X67731Y126531D01*
X71285Y125453D01*
X74980Y125089D01*
X84980D01*
X88675Y125453D01*
X92228Y126531D01*
X95503Y128281D01*
X98373Y130637D01*
X100729Y133507D01*
X102479Y136782D01*
X103557Y140335D01*
X103921Y144030D01*
X103557Y147725D01*
X102479Y151278D01*
X100729Y154553D01*
X98373Y157423D01*
X95503Y159779D01*
X92228Y161529D01*
X88675Y162607D01*
X84980Y162971D01*
D02*
G37*
G36*
X453922Y79121D02*
X450898D01*
X447933Y78531D01*
X445139Y77374D01*
X442625Y75694D01*
X440487Y73556D01*
X438807Y71042D01*
X437650Y68248D01*
X437060Y65283D01*
Y62259D01*
X437650Y59293D01*
X438807Y56500D01*
X440487Y53986D01*
X442625Y51848D01*
X445139Y50168D01*
X447933Y49011D01*
X450898Y48421D01*
X453922D01*
X456888Y49011D01*
X459681Y50168D01*
X462195Y51848D01*
X464333Y53986D01*
X466013Y56500D01*
X467170Y59293D01*
X467760Y62259D01*
Y65283D01*
X467170Y68248D01*
X466013Y71042D01*
X464333Y73556D01*
X462195Y75694D01*
X459681Y77374D01*
X456888Y78531D01*
X453922Y79121D01*
D02*
G37*
%LPD*%
D30*
X541020Y217170D02*
D03*
Y242570D02*
D03*
D31*
X552450Y323450D02*
D03*
D33*
X519460Y123710D02*
D03*
D34*
X79980Y183630D02*
D03*
Y144030D02*
D03*
D37*
X552450Y298450D02*
D03*
D38*
X519460Y163310D02*
D03*
D39*
X186690Y121920D02*
D03*
X234950D02*
D03*
X283210D02*
D03*
D44*
X455930Y410210D02*
D03*
Y207010D02*
D03*
Y308610D02*
D03*
X252730Y410210D02*
D03*
Y334010D02*
D03*
D45*
Y283210D02*
D03*
D46*
X417410Y63771D02*
D03*
X130810Y393700D02*
D03*
X452410Y63771D02*
D03*
X165810Y393700D02*
D03*
D47*
X85510Y290830D02*
D03*
X143510D02*
D03*
D48*
X113510Y242830D02*
D03*
D49*
X550000Y50000D02*
D03*
Y400000D02*
D03*
X50000Y50000D02*
D03*
Y400000D02*
D03*
D50*
X397330Y397730D02*
D03*
Y367730D02*
D03*
Y337730D02*
D03*
Y307730D02*
D03*
Y277730D02*
D03*
Y247730D02*
D03*
X367330Y397730D02*
D03*
Y367730D02*
D03*
Y337730D02*
D03*
Y307730D02*
D03*
Y277730D02*
D03*
Y247730D02*
D03*
Y217730D02*
D03*
X337330Y397730D02*
D03*
Y367730D02*
D03*
Y337730D02*
D03*
Y307730D02*
D03*
Y277730D02*
D03*
Y247730D02*
D03*
Y217730D02*
D03*
X307330Y397730D02*
D03*
Y367730D02*
D03*
Y337730D02*
D03*
Y307730D02*
D03*
Y277730D02*
D03*
Y247730D02*
D03*
Y217730D02*
D03*
X368300Y40640D02*
D03*
X464820Y153670D02*
D03*
X199390Y327050D02*
D03*
M02*
