G04*
G04 #@! TF.GenerationSoftware,Altium Limited,Altium Designer,26.3.0 (6)*
G04*
G04 Layer_Color=65535*
%FSLAX44Y44*%
%MOMM*%
G71*
G04*
G04 #@! TF.SameCoordinates,B629A01A-656D-4AE3-8AA2-BA5F11861BCF*
G04*
G04*
G04 #@! TF.FilePolarity,Positive*
G04*
G01*
G75*
%ADD10C,0.1000*%
%ADD11C,0.2500*%
%ADD12C,0.2000*%
%ADD13C,0.1270*%
%ADD14C,0.1524*%
%ADD15C,0.2540*%
D10*
X361192Y112434D02*
G03*
X361192Y112434I-500J0D01*
G01*
D11*
X119120Y134620D02*
G03*
X119120Y134620I-1250J0D01*
G01*
X520710Y96760D02*
G03*
X520710Y96760I-1250J0D01*
G01*
X553700Y354700D02*
G03*
X553700Y354700I-1250J0D01*
G01*
X81230Y210580D02*
G03*
X81230Y210580I-1250J0D01*
G01*
X211040Y264450D02*
G03*
X211040Y264450I-1250J0D01*
G01*
D12*
X477410Y63771D02*
G03*
X477410Y63771I-42500J0D01*
G01*
X190810Y393700D02*
G03*
X190810Y393700I-42500J0D01*
G01*
X136510Y245830D02*
X152510D01*
X7510D02*
X90510D01*
X152510D02*
Y267830D01*
Y313830D02*
Y335830D01*
X7510Y245830D02*
Y335830D01*
X152510D01*
X149870Y189370D02*
X154620D01*
X149870Y143370D02*
X154620D01*
X114620Y189370D02*
X119370D01*
X114620Y143370D02*
X119370D01*
X154620D02*
Y189370D01*
X114620Y143370D02*
Y189370D01*
X499460Y104210D02*
Y182810D01*
X638460D01*
Y104210D02*
Y182810D01*
X499460Y104210D02*
X638460D01*
X362050Y71890D02*
Y72890D01*
X374550Y71890D02*
Y72890D01*
X518450Y347950D02*
X575950D01*
X518450Y273950D02*
Y347950D01*
Y273950D02*
X575950D01*
Y347950D01*
X488840Y58691D02*
Y68851D01*
X483760Y63771D02*
X493920D01*
X202240Y388620D02*
Y398780D01*
X197160Y393700D02*
X207320D01*
X-39020Y203130D02*
X99980D01*
X-39020Y124530D02*
Y203130D01*
Y124530D02*
X99980D01*
Y203130D01*
X213040Y211950D02*
Y257950D01*
X173040Y211950D02*
Y257950D01*
X208290D02*
X213040D01*
X208290Y211950D02*
X213040D01*
X173040Y257950D02*
X177790D01*
X173040Y211950D02*
X177790D01*
D13*
X227330Y435610D02*
X481330D01*
Y181610D02*
Y435610D01*
X227330Y181610D02*
X481330D01*
X227330D02*
Y435610D01*
D14*
X299720Y86360D02*
Y157480D01*
X170180Y86360D02*
X299720D01*
X170180D02*
Y157480D01*
X299720D01*
X507194Y199151D02*
Y258587D01*
Y199151D02*
X576790D01*
Y258587D01*
X507194D02*
X576790D01*
D15*
X310308Y162562D02*
Y175258D01*
X316656D01*
X318772Y173142D01*
Y168910D01*
X316656Y166794D01*
X310308D01*
X331468Y173142D02*
X329352Y175258D01*
X325120D01*
X323004Y173142D01*
Y171026D01*
X325120Y168910D01*
X329352D01*
X331468Y166794D01*
Y164678D01*
X329352Y162562D01*
X325120D01*
X323004Y164678D01*
X335700Y162562D02*
X339932D01*
X337816D01*
Y175258D01*
X335700Y173142D01*
X418254Y133772D02*
X416138Y135888D01*
X411906D01*
X409790Y133772D01*
Y125308D01*
X411906Y123192D01*
X416138D01*
X418254Y125308D01*
X428834Y123192D02*
Y135888D01*
X422486Y129540D01*
X430950D01*
X336130Y152398D02*
Y139702D01*
X342478D01*
X344594Y141818D01*
Y150282D01*
X342478Y152398D01*
X336130D01*
X348826Y150282D02*
X350942Y152398D01*
X355174D01*
X357290Y150282D01*
Y148166D01*
X355174Y146050D01*
X353058D01*
X355174D01*
X357290Y143934D01*
Y141818D01*
X355174Y139702D01*
X350942D01*
X348826Y141818D01*
X206164Y352212D02*
X204048Y354328D01*
X199816D01*
X197700Y352212D01*
Y343748D01*
X199816Y341632D01*
X204048D01*
X206164Y343748D01*
X218860Y341632D02*
X210396D01*
X218860Y350096D01*
Y352212D01*
X216744Y354328D01*
X212512D01*
X210396Y352212D01*
X22860Y359408D02*
X18628D01*
X20744D01*
Y348828D01*
X18628Y346712D01*
X16512D01*
X14396Y348828D01*
X27092Y346712D02*
X31324D01*
X29208D01*
Y359408D01*
X27092Y357292D01*
X124460Y36830D02*
Y50826D01*
X131458D01*
X133790Y48493D01*
Y43828D01*
X131458Y41495D01*
X124460D01*
X138455Y46160D02*
Y39163D01*
X140788Y36830D01*
X147786D01*
Y46160D01*
X152451D02*
Y36830D01*
Y41495D01*
X154783Y43828D01*
X157116Y46160D01*
X159449D01*
X175777Y50826D02*
Y36830D01*
X168779D01*
X166446Y39163D01*
Y43828D01*
X168779Y46160D01*
X175777D01*
X180442D02*
Y39163D01*
X182775Y36830D01*
X189772D01*
Y46160D01*
X201435Y36830D02*
X196770D01*
X194437Y39163D01*
Y43828D01*
X196770Y46160D01*
X201435D01*
X203768Y43828D01*
Y41495D01*
X194437D01*
X222428Y50826D02*
X227094D01*
X224761D01*
Y36830D01*
X222428D01*
X227094D01*
X234091D02*
Y46160D01*
X241089D01*
X243421Y43828D01*
Y36830D01*
X257417Y50826D02*
Y36830D01*
X250419D01*
X248087Y39163D01*
Y43828D01*
X250419Y46160D01*
X257417D01*
X262082D02*
Y39163D01*
X264415Y36830D01*
X271413D01*
Y34497D01*
X269080Y32165D01*
X266747D01*
X271413Y36830D02*
Y46160D01*
X290073Y36830D02*
Y46160D01*
X294738Y50826D01*
X299403Y46160D01*
Y36830D01*
Y43828D01*
X290073D01*
X304069Y36830D02*
Y50826D01*
X311066D01*
X313399Y48493D01*
Y43828D01*
X311066Y41495D01*
X304069D01*
X308734D02*
X313399Y36830D01*
X327394Y48493D02*
X325062Y50826D01*
X320397D01*
X318064Y48493D01*
Y39163D01*
X320397Y36830D01*
X325062D01*
X327394Y39163D01*
X589280Y212090D02*
Y222247D01*
X584200Y242568D02*
X594357D01*
X589278Y247647D02*
Y237490D01*
X218440Y78312D02*
Y65616D01*
X224788D01*
X226904Y67732D01*
Y69848D01*
X224788Y71964D01*
X218440D01*
X224788D01*
X226904Y74080D01*
Y76196D01*
X224788Y78312D01*
X218440D01*
X233252Y74080D02*
X237484D01*
X239600Y71964D01*
Y65616D01*
X233252D01*
X231136Y67732D01*
X233252Y69848D01*
X239600D01*
X243832Y74080D02*
Y65616D01*
Y69848D01*
X245948Y71964D01*
X248064Y74080D01*
X250180D01*
X256528D02*
Y65616D01*
Y69848D01*
X258644Y71964D01*
X260760Y74080D01*
X262876D01*
X275571Y65616D02*
X271339D01*
X269223Y67732D01*
Y71964D01*
X271339Y74080D01*
X275571D01*
X277687Y71964D01*
Y69848D01*
X269223D01*
X281919Y65616D02*
X286151D01*
X284035D01*
Y78312D01*
X281919D01*
X313659D02*
X309427D01*
X311543D01*
Y67732D01*
X309427Y65616D01*
X307311D01*
X305195Y67732D01*
X320007Y74080D02*
X324239D01*
X326355Y71964D01*
Y65616D01*
X320007D01*
X317891Y67732D01*
X320007Y69848D01*
X326355D01*
X339051Y74080D02*
X332703D01*
X330587Y71964D01*
Y67732D01*
X332703Y65616D01*
X339051D01*
X343283D02*
Y78312D01*
Y69848D02*
X349631Y74080D01*
X343283Y69848D02*
X349631Y65616D01*
X102870Y80428D02*
Y67732D01*
X109218D01*
X111334Y69848D01*
Y71964D01*
X109218Y74080D01*
X102870D01*
X109218D01*
X111334Y76196D01*
Y78312D01*
X109218Y80428D01*
X102870D01*
X117682Y76196D02*
X121914D01*
X124030Y74080D01*
Y67732D01*
X117682D01*
X115566Y69848D01*
X117682Y71964D01*
X124030D01*
X130378Y78312D02*
Y76196D01*
X128262D01*
X132494D01*
X130378D01*
Y69848D01*
X132494Y67732D01*
X140958Y78312D02*
Y76196D01*
X138842D01*
X143074D01*
X140958D01*
Y69848D01*
X143074Y67732D01*
X155770D02*
X151538D01*
X149422Y69848D01*
Y74080D01*
X151538Y76196D01*
X155770D01*
X157886Y74080D01*
Y71964D01*
X149422D01*
X162118Y76196D02*
Y67732D01*
Y71964D01*
X164233Y74080D01*
X166350Y76196D01*
X168465D01*
X174813D02*
Y69848D01*
X176929Y67732D01*
X183277D01*
Y65616D01*
X181161Y63500D01*
X179045D01*
X183277Y67732D02*
Y76196D01*
X118629Y10575D02*
Y24570D01*
X125626D01*
X127959Y22238D01*
Y17573D01*
X125626Y15240D01*
X118629D01*
X134957Y10575D02*
X139622D01*
X141954Y12907D01*
Y17573D01*
X139622Y19905D01*
X134957D01*
X132624Y17573D01*
Y12907D01*
X134957Y10575D01*
X146620Y19905D02*
Y12907D01*
X148952Y10575D01*
X151285Y12907D01*
X153617Y10575D01*
X155950Y12907D01*
Y19905D01*
X167613Y10575D02*
X162948D01*
X160615Y12907D01*
Y17573D01*
X162948Y19905D01*
X167613D01*
X169945Y17573D01*
Y15240D01*
X160615D01*
X174610Y19905D02*
Y10575D01*
Y15240D01*
X176943Y17573D01*
X179276Y19905D01*
X181608D01*
X202601Y24570D02*
Y10575D01*
X209599D01*
X211932Y12907D01*
Y15240D01*
X209599Y17573D01*
X202601D01*
X209599D01*
X211932Y19905D01*
Y22238D01*
X209599Y24570D01*
X202601D01*
X218930Y10575D02*
X223595D01*
X225927Y12907D01*
Y17573D01*
X223595Y19905D01*
X218930D01*
X216597Y17573D01*
Y12907D01*
X218930Y10575D01*
X232925Y19905D02*
X237590D01*
X239923Y17573D01*
Y10575D01*
X232925D01*
X230592Y12907D01*
X232925Y15240D01*
X239923D01*
X244588Y19905D02*
Y10575D01*
Y15240D01*
X246920Y17573D01*
X249253Y19905D01*
X251586D01*
X267914Y24570D02*
Y10575D01*
X260916D01*
X258583Y12907D01*
Y17573D01*
X260916Y19905D01*
X267914D01*
X286574Y24570D02*
Y15240D01*
X291239Y10575D01*
X295905Y15240D01*
Y24570D01*
X309900Y10575D02*
X300570D01*
X309900Y19905D01*
Y22238D01*
X307568Y24570D01*
X302902D01*
X300570Y22238D01*
X314565Y10575D02*
Y12907D01*
X316898D01*
Y10575D01*
X314565D01*
X326228Y22238D02*
X328561Y24570D01*
X333226D01*
X335558Y22238D01*
Y12907D01*
X333226Y10575D01*
X328561D01*
X326228Y12907D01*
Y22238D01*
X108376Y217168D02*
Y204472D01*
X114724D01*
X116840Y206588D01*
Y215052D01*
X114724Y217168D01*
X108376D01*
X121072Y204472D02*
X125304D01*
X123188D01*
Y217168D01*
X121072Y215052D01*
X496994Y88898D02*
X492762D01*
X494878D01*
Y78318D01*
X492762Y76202D01*
X490646D01*
X488530Y78318D01*
X509690Y88898D02*
X501226D01*
Y82550D01*
X505458Y84666D01*
X507574D01*
X509690Y82550D01*
Y78318D01*
X507574Y76202D01*
X503342D01*
X501226Y78318D01*
X38524Y228598D02*
X34292D01*
X36408D01*
Y218018D01*
X34292Y215902D01*
X32176D01*
X30060Y218018D01*
X51220Y215902D02*
X42756D01*
X51220Y224366D01*
Y226482D01*
X49104Y228598D01*
X44872D01*
X42756Y226482D01*
X144360Y233678D02*
Y220982D01*
X150708D01*
X152824Y223098D01*
Y231562D01*
X150708Y233678D01*
X144360D01*
X165520Y220982D02*
X157056D01*
X165520Y229446D01*
Y231562D01*
X163404Y233678D01*
X159172D01*
X157056Y231562D01*
X498264Y279398D02*
X494032D01*
X496148D01*
Y268818D01*
X494032Y266702D01*
X491916D01*
X489800Y268818D01*
X508844Y266702D02*
Y279398D01*
X502496Y273050D01*
X510960D01*
X505884Y370838D02*
X501652D01*
X503768D01*
Y360258D01*
X501652Y358142D01*
X499536D01*
X497420Y360258D01*
X510116Y368722D02*
X512232Y370838D01*
X516464D01*
X518580Y368722D01*
Y366606D01*
X516464Y364490D01*
X514348D01*
X516464D01*
X518580Y362374D01*
Y360258D01*
X516464Y358142D01*
X512232D01*
X510116Y360258D01*
X317502Y126152D02*
X315386Y128268D01*
X311154D01*
X309038Y126152D01*
Y124036D01*
X311154Y121920D01*
X315386D01*
X317502Y119804D01*
Y117688D01*
X315386Y115572D01*
X311154D01*
X309038Y117688D01*
X321734Y128268D02*
Y115572D01*
X325966Y119804D01*
X330198Y115572D01*
Y128268D01*
X334430Y115572D02*
X338662D01*
X336546D01*
Y128268D01*
X334430Y126152D01*
X335706Y88902D02*
Y101598D01*
X342054D01*
X344170Y99482D01*
Y95250D01*
X342054Y93134D01*
X335706D01*
X339938D02*
X344170Y88902D01*
X348402D02*
X352634D01*
X350518D01*
Y101598D01*
X348402Y99482D01*
X460164Y121072D02*
X458048Y123188D01*
X453816D01*
X451700Y121072D01*
Y112608D01*
X453816Y110492D01*
X458048D01*
X460164Y112608D01*
X464396Y121072D02*
X466512Y123188D01*
X470744D01*
X472860Y121072D01*
Y118956D01*
X470744Y116840D01*
X468628D01*
X470744D01*
X472860Y114724D01*
Y112608D01*
X470744Y110492D01*
X466512D01*
X464396Y112608D01*
X95250Y362372D02*
X93134Y364488D01*
X88902D01*
X86786Y362372D01*
Y353908D01*
X88902Y351792D01*
X93134D01*
X95250Y353908D01*
X99482Y351792D02*
X103714D01*
X101598D01*
Y364488D01*
X99482Y362372D01*
M02*
